<?xml version="1.0" standalone="no"?>
<!DOCTYPE svg PUBLIC "-//W3C//DTD SVG 20010904//EN"
 "http://www.w3.org/TR/2001/REC-SVG-20010904/DTD/svg10.dtd">
<svg version="1.0" xmlns="http://www.w3.org/2000/svg"
 width="385.000000pt" height="385.000000pt" viewBox="0 0 385.000000 385.000000"
 preserveAspectRatio="xMidYMid meet">
<metadata>
Created by potrace 1.11, written by Peter Selinger 2001-2013
</metadata>
<g transform="translate(0.000000,385.000000) scale(0.100000,-0.100000)"
fill="#000000" stroke="none">
<path d="M0 1925 l0 -1925 314 0 315 0 -1 93 c-1 60 5 111 15 146 10 30 17 84
18 120 1 112 10 126 124 187 113 61 144 66 181 28 20 -20 25 -33 22 -60 -3
-26 0 -35 13 -39 25 -8 79 -72 79 -93 0 -9 -9 -30 -20 -47 -11 -16 -20 -42
-20 -57 0 -14 -3 -33 -6 -42 -8 -22 -34 -20 -35 2 -1 11 -4 8 -8 -8 -5 -16 -3
-29 5 -35 34 -27 46 -134 18 -173 l-15 -22 301 0 301 0 -3 23 c-2 16 2 22 17
22 14 0 20 -6 19 -22 -1 -21 4 -23 48 -23 26 0 48 1 48 3 0 1 3 81 6 177 3 96
10 202 15 235 5 33 9 79 9 103 0 31 4 42 15 42 11 0 15 -12 16 -47 1 -39 13
-310 22 -475 l2 -38 48 0 c27 0 46 4 43 8 -10 17 14 36 61 48 26 7 50 10 53 8
2 -3 -1 -18 -7 -34 l-11 -30 201 1 c111 0 196 3 189 6 -33 13 -58 126 -31 135
7 2 13 22 15 43 17 217 28 295 44 333 18 40 21 42 62 42 55 0 140 -41 163 -78
10 -15 37 -45 60 -67 l44 -40 -10 -50 c-5 -27 -14 -106 -19 -175 -6 -69 -12
-131 -15 -137 -3 -10 74 -13 369 -13 291 0 373 3 373 13 1 6 8 39 17 72 22 76
72 339 91 475 9 58 18 218 22 355 l7 250 18 -75 c37 -152 69 -359 80 -520 14
-209 1 -546 -22 -560 -11 -7 -2 -10 30 -10 l45 0 3 223 c4 239 -13 467 -47
662 -21 118 -58 355 -91 580 -11 77 -27 169 -36 205 -26 105 -120 427 -153
525 -38 109 -39 130 -9 132 13 1 24 7 26 13 2 5 23 10 47 10 26 0 47 6 56 16
8 10 21 13 36 9 13 -3 23 -1 23 5 0 5 8 10 18 10 10 0 23 5 29 11 8 8 13 8 17
0 11 -18 61 -13 83 8 12 11 23 17 26 14 3 -3 24 -2 46 2 41 7 41 7 41 52 0 42
-2 45 -22 39 -26 -7 -177 -43 -321 -76 -83 -19 -103 -21 -125 -10 -25 12 -26
13 -7 21 13 5 15 8 5 8 -26 2 35 28 102 44 35 9 97 26 138 37 41 12 108 30
149 41 41 11 76 21 78 23 2 1 2 165 1 363 l-3 361 -120 -38 c-66 -21 -246 -77
-400 -125 -154 -47 -285 -88 -292 -90 -6 -2 -30 45 -58 116 -85 218 -230 407
-396 515 l-76 49 61 24 c34 13 79 32 101 42 37 18 79 19 615 22 316 1 -292 3
-1352 5 l-1928 2 0 -1925z m2056 1150 c8 -55 17 -108 20 -118 5 -15 0 -16 -33
-11 -21 3 -50 5 -65 5 l-27 -1 14 42 c12 41 29 99 57 198 11 42 12 43 15 15 2
-16 10 -75 19 -130z m-710 73 c-3 -13 -5 -74 -5 -136 l-1 -113 -33 6 c-18 4
-45 1 -61 -5 -16 -6 -31 -8 -34 -5 -5 5 126 275 134 275 2 0 2 -10 0 -22z
m-829 -245 c-3 -10 -5 -4 -5 12 0 17 2 24 5 18 2 -7 2 -21 0 -30z m1555 5 c16
-14 122 -433 113 -447 -2 -5 -20 -12 -39 -15 -47 -9 -148 -61 -176 -91 -13
-14 -18 -25 -11 -25 9 0 11 -9 6 -30 -5 -25 -4 -29 9 -24 9 3 16 9 16 13 0 4
14 15 31 25 l32 19 -24 -32 c-16 -22 -24 -49 -27 -91 -6 -87 4 -125 46 -169
32 -33 45 -39 94 -45 51 -5 60 -4 82 18 15 13 26 25 26 27 0 2 -29 4 -65 4
-47 0 -69 5 -81 17 -32 31 -12 43 72 43 74 0 78 -1 84 -24 4 -19 7 -21 16 -10
23 28 36 93 32 150 -4 52 -9 64 -42 98 -44 45 -34 61 21 32 65 -33 78 -55 76
-125 l-3 -61 26 43 c15 26 30 40 35 35 14 -14 12 -113 -5 -183 -22 -94 -35
-204 -45 -384 -11 -186 -4 -173 -161 -289 -99 -73 -134 -102 -88 -74 15 9 29
17 30 17 2 0 1 -26 0 -57 -3 -50 -10 -66 -44 -111 -22 -29 -73 -80 -112 -115
-96 -84 -94 -82 -148 -149 -26 -32 -49 -59 -53 -59 -3 1 -35 38 -72 83 -36 46
-69 85 -72 88 -21 16 -46 73 -57 125 -7 33 -11 61 -10 63 2 1 36 -13 77 -33
40 -19 84 -35 96 -35 25 0 102 28 118 42 6 5 -15 0 -45 -12 -68 -27 -87 -23
-215 39 -55 27 -165 80 -245 119 -235 113 -271 151 -315 333 -14 57 -28 113
-32 123 -4 15 -1 18 11 13 19 -8 19 -12 2 65 -13 54 -36 250 -36 297 0 10 16
-2 40 -29 l39 -45 1 53 c0 64 19 107 66 155 37 37 75 50 108 38 17 -7 15 -9
-13 -14 -19 -4 -50 -24 -72 -46 -35 -34 -39 -44 -39 -87 0 -65 36 -139 90
-187 l43 -38 54 12 c61 14 88 32 98 67 7 25 8 25 -52 -6 -13 -7 -34 -12 -48
-12 -19 0 -25 5 -25 23 0 17 -2 19 -10 7 -12 -20 -23 -6 -15 19 4 14 14 20 33
20 15 -1 44 2 65 6 24 4 43 2 52 -5 13 -11 15 -4 15 49 0 41 4 60 10 56 7 -4
8 3 4 22 -4 15 -7 36 -6 45 1 26 -85 95 -148 119 -57 22 -173 41 -164 27 3 -4
-13 -24 -35 -43 -22 -20 -49 -56 -61 -81 -12 -24 -24 -44 -27 -44 -13 0 8 150
31 220 27 84 121 331 141 370 14 27 77 50 135 50 26 0 29 -3 34 -42 3 -24 10
-88 16 -143 18 -152 18 -152 45 -228 31 -84 49 -117 40 -72 -11 58 -18 330 -8
320 5 -5 25 -48 43 -95 49 -128 132 -299 202 -418 l63 -106 6 134 c4 103 10
148 26 190 12 30 47 136 78 235 31 99 63 198 70 220 10 31 19 41 41 46 49 11
89 10 106 -3z m216 -39 c-3 -8 -7 -3 -11 10 -4 17 -3 21 5 13 5 -5 8 -16 6
-23z m25 -100 c23 -84 86 -373 82 -377 -1 -2 -20 8 -40 22 -21 15 -56 31 -77
37 l-40 10 6 52 c3 29 11 114 18 190 7 88 15 136 22 134 6 -2 19 -33 29 -68z
m-716 -31 c-3 -8 -6 -5 -6 6 -1 11 2 17 5 13 3 -3 4 -12 1 -19z m-1000 -130
c-3 -8 -6 -5 -6 6 -1 11 2 17 5 13 3 -3 4 -12 1 -19z m220 -140 c-3 -8 -6 -5
-6 6 -1 11 2 17 5 13 3 -3 4 -12 1 -19z m1324 -128 c43 -23 5 -90 -51 -90 -34
0 -45 17 -36 54 5 20 28 36 64 45 2 1 12 -4 23 -9z m753 -44 c28 -37 26 -116
-5 -182 l-23 -49 -6 45 c-3 25 -2 59 1 76 4 18 3 38 -2 45 -5 8 -9 34 -9 57 0
50 12 52 44 8z m-1629 -22 c16 -17 12 -53 -9 -66 -17 -12 -61 -9 -74 4 -17 17
-15 35 8 58 24 24 53 26 75 4z m975 -28 c0 -21 -21 -31 -30 -15 -5 7 -6 17 -4
21 9 14 34 9 34 -6z m-890 -32 c0 -8 -7 -14 -15 -14 -15 0 -21 21 -9 33 10 9
24 -2 24 -19z m1709 -724 c2 -113 7 -239 11 -280 l7 -75 4 100 c2 55 3 132 2
170 -1 78 -2 83 46 -130 26 -113 31 -152 26 -202 -4 -35 -9 -63 -11 -63 -3 0
-20 11 -38 25 -21 16 -46 25 -69 25 -33 0 -37 3 -37 25 0 14 -4 25 -10 25 -5
0 -10 -11 -10 -25 0 -24 -3 -27 -32 -29 -8 -1 -11 56 -9 214 1 118 5 225 8
238 18 73 33 -35 34 -250 2 -251 16 -143 22 164 5 278 7 303 24 315 16 13 19
11 23 -14 3 -15 7 -120 9 -233z m-739 -190 c0 -11 -63 -24 -82 -17 -7 2 3 9
22 15 46 13 60 14 60 2z m-125 -17 c35 -86 55 -165 55 -214 0 -107 -68 -434
-123 -593 l-13 -39 -90 119 c-49 65 -111 142 -139 171 -46 47 -55 52 -108 58
-49 6 -61 4 -79 -11 -23 -21 -101 -135 -138 -202 -13 -23 -27 -42 -31 -42 -26
0 -35 583 -11 653 14 39 34 45 40 12 3 -10 0 -15 -7 -11 -40 25 43 -143 107
-215 63 -73 122 -154 122 -169 0 -23 25 -3 48 39 13 23 63 79 110 124 48 45
111 107 142 138 60 61 121 160 102 167 -14 4 -16 32 -3 32 5 0 12 -8 16 -17z
m125 -35 c0 -11 -5 -18 -12 -16 -19 7 -21 35 -3 35 8 0 15 -9 15 -19z m380
-62 c0 -8 -4 -17 -9 -20 -5 -3 -7 -14 -4 -25 2 -10 -3 -25 -12 -35 -11 -11
-12 -16 -4 -16 10 0 10 -3 1 -12 -9 -9 -15 -9 -24 0 -7 7 -21 12 -32 12 -17 0
-16 4 12 33 18 18 32 37 32 43 0 12 21 34 32 34 4 0 8 -6 8 -14z m-882 -430
c13 -14 -16 -26 -64 -26 -55 0 -64 6 -41 29 11 12 92 9 105 -3z m-107 -223
c-22 -86 -96 -305 -114 -338 -10 -18 -12 -17 -23 20 -24 78 -18 127 27 212 39
73 120 195 127 188 2 -1 -6 -38 -17 -82z m318 -18 l79 -105 -20 -80 c-11 -44
-24 -80 -28 -80 -4 0 -13 26 -20 58 -7 31 -31 114 -55 185 -23 70 -41 127 -39
127 2 0 39 -47 83 -105z m-98 -193 c10 -69 3 -177 -11 -151 -4 8 -10 70 -13
139 -6 131 4 136 24 12z"/>
<path d="M2110 2086 c0 -9 6 -16 13 -17 6 0 22 -2 35 -5 12 -2 22 1 22 6 0 6
-7 11 -15 11 -24 2 -29 4 -42 12 -9 5 -13 3 -13 -7z"/>
<path d="M1305 2040 c-3 -5 -1 -10 4 -10 6 0 11 5 11 10 0 6 -2 10 -4 10 -3 0
-8 -4 -11 -10z"/>
<path d="M1823 1609 c-12 -12 -108 -16 -140 -5 -17 5 -26 1 -39 -18 -26 -41
-12 -103 36 -154 38 -40 82 -63 47 -24 -19 21 -23 37 -7 27 6 -4 17 -2 25 5
11 9 12 7 8 -11 -5 -19 -3 -20 18 -14 13 4 30 14 36 23 7 8 16 13 20 9 3 -4
-2 -16 -11 -26 -17 -19 -17 -19 3 -14 27 7 49 43 62 102 7 36 7 56 -1 70 -14
28 -44 43 -57 30z m-53 -63 c0 -2 -11 -6 -25 -8 -13 -3 -22 -1 -19 3 5 9 44
13 44 5z m-77 -13 c-21 -8 -15 -32 15 -60 15 -15 22 -23 15 -20 -6 4 -13 1
-16 -5 -3 -10 -10 -8 -25 6 -16 14 -20 26 -15 45 8 35 12 41 26 40 9 0 9 -2 0
-6z m174 -25 c-3 -8 -6 -5 -6 6 -1 11 2 17 5 13 3 -3 4 -12 1 -19z m-9 -30
c-2 -5 -8 -9 -13 -9 -5 0 -11 4 -13 9 -1 5 4 9 13 9 9 0 14 -4 13 -9z"/>
<path d="M2034 1264 c-18 -14 -18 -15 4 -4 12 6 22 13 22 15 0 8 -5 6 -26 -11z"/>
<path d="M1980 1235 c-14 -8 -20 -14 -14 -15 5 0 19 7 30 15 24 18 16 19 -16
0z"/>
<path d="M1900 1190 c-9 -6 -10 -10 -3 -10 6 0 15 5 18 10 8 12 4 12 -15 0z"/>
<path d="M3071 1114 c0 -11 3 -14 6 -6 3 7 2 16 -1 19 -3 4 -6 -2 -5 -13z"/>
<path d="M3748 1973 c-33 -17 -36 -39 -7 -48 23 -8 48 17 49 48 0 20 -5 20
-42 0z"/>
<path d="M993 355 c0 -22 2 -30 4 -17 2 12 2 30 0 40 -3 9 -5 -1 -4 -23z"/>
<path d="M958 23 c7 -3 16 -2 19 1 4 3 -2 6 -13 5 -11 0 -14 -3 -6 -6z"/>
<path d="M918 3 c7 -3 16 -2 19 1 4 3 -2 6 -13 5 -11 0 -14 -3 -6 -6z"/>
</g>
</svg>
